<svg width="33" height="34" viewBox="0 0 33 34" fill="none" xmlns="http://www.w3.org/2000/svg">
<path fill-rule="evenodd" clip-rule="evenodd" d="M2.12748 9.96235C4.53592 4.17913 10.179 0.405439 16.4437 0.388706C23.1955 0.353152 29.199 4.67791 31.3037 11.0934C33.4083 17.5089 31.1334 24.5495 25.6726 28.5204C20.2118 32.4913 12.8128 32.4854 7.3584 28.5058L2.49491 33.3692C2.00042 33.8631 1.19936 33.8631 0.704875 33.3692C0.211005 32.8748 0.211005 32.0737 0.704875 31.5792L5.41638 26.8677C1.01543 22.4092 -0.280968 15.7456 2.12748 9.96235ZM4.38554 20.9385C6.40773 25.8116 11.1677 28.9854 16.4437 28.9786V28.911C23.6043 28.9019 29.4173 23.1191 29.4636 15.9586C29.4705 10.6826 26.2966 5.92269 21.4236 3.9005C16.5505 1.87831 10.939 2.99262 7.20834 6.7233C3.47766 10.454 2.36335 16.0655 4.38554 20.9385Z" fill="#A26F5C"/>
</svg>
